<svg width="40" height="40" viewBox="0 0 40 40" fill="none" xmlns="http://www.w3.org/2000/svg">
<circle cx="20" cy="20" r="20" fill="black"/>
<path d="M17.9961 23.7431H21.9921V23.1442C21.9921 21.9463 22.4788 21.3729 24.2335 20.3662C26.1163 19.283 27 17.9832 27 16.11V16.0845C27 13.0389 24.464 11 20.5704 11C16.4719 11 14.0384 13.1791 14.0128 16.505L14 16.5305L18.1498 16.5178L18.1754 16.505C18.201 15.2817 19.0463 14.4661 20.2759 14.4661C21.4798 14.4661 22.3251 15.1797 22.3251 16.1992V16.2247C22.3251 17.3333 21.8768 17.8685 20.135 18.888C18.3547 19.9074 17.7143 21.0543 17.9576 23.2334L17.9961 23.7431ZM20.1094 30C21.7616 30 22.7222 29.1462 22.7222 27.6808C22.7222 26.2025 21.7616 25.3488 20.1094 25.3488C18.4571 25.3488 17.4837 26.2025 17.4837 27.6808C17.4837 29.1462 18.4571 30 20.1094 30Z" fill="white"/>
</svg>
