<svg width="40" height="40" viewBox="0 0 40 40" fill="none" xmlns="http://www.w3.org/2000/svg">
<circle cx="20" cy="20" r="20" fill="black"/>
<path d="M32.7235 19.4786C32.4205 19.4786 32.1756 19.2244 32.1481 18.9017C31.6216 12.2372 26.3908 7 19.997 7C17.028 7 14.3132 8.13738 12.1982 10.0145C11.938 10.2459 11.9289 10.6729 12.1707 10.927L13.4256 12.2632C13.6367 12.4914 13.9734 12.4979 14.206 12.2958C15.7946 10.9368 17.8055 10.1156 19.997 10.1156C24.7319 10.1156 28.6374 13.9155 29.1945 18.7974C29.2343 19.1592 28.9557 19.4753 28.6129 19.4753H27.0703C26.5806 19.4753 26.3113 20.075 26.6173 20.4823L30.2902 25.3708C30.5228 25.6804 30.9636 25.6804 31.1992 25.3708L34.8721 20.4823C35.1751 20.075 34.9058 19.4753 34.4191 19.4753L32.7235 19.4786Z" fill="white"/>
<path d="M20 29.8779C15.3538 29.8779 11.5156 26.2214 10.8484 21.4698C10.7964 21.1048 11.081 20.7789 11.4269 20.7789H12.9297C13.4194 20.7789 13.6888 20.1793 13.3827 19.7719L9.7098 14.8834C9.47718 14.5738 9.03643 14.5738 8.80076 14.8834L5.12788 19.7719C4.82486 20.1793 5.09421 20.7789 5.58086 20.7789H7.30406C7.60401 20.7789 7.84581 21.0266 7.87948 21.3427C8.51611 27.89 13.6857 33 20 33C22.9689 33 25.6838 31.8626 27.7987 29.9855C28.0589 29.7541 28.0681 29.3272 27.8263 29.073L26.5714 27.7368C26.3602 27.5119 26.0235 27.5021 25.7909 27.7042C24.2024 29.0599 22.1915 29.8779 20 29.8779Z" fill="white"/>
</svg>
